<svg version="1.1" xmlns="http://www.w3.org/2000/svg" viewBox="0 0 198.6666259765625 307.3333740234375" width="198.6666259765625" height="307.3333740234375" class="excalidraw-svg">
  <!-- svg-source:excalidraw -->
  
  <defs>
    <style class="style-fonts">
      @font-face {
        font-family: "Virgil";
        src: url("https://excalidraw.com/Virgil.woff2");
      }
      @font-face {
        font-family: "Cascadia";
        src: url("https://excalidraw.com/Cascadia.woff2");
      }
      @font-face {
        font-family: "Assistant";
        src: url("https://excalidraw.com/Assistant-Regular.woff2");
      }
    </style>
    
  </defs>
  <g transform="translate(96.6666259765625 10.66668701171875) rotate(0 -21.6666259765625 143)" stroke="none"><path fill="#1e1e1e" d="M 0.94,2.97 Q 0.94,2.97 -6.35,5.20 -13.64,7.44 -21.41,12.24 -29.19,17.05 -37.79,25.11 -46.39,33.17 -55.38,44.38 -64.37,55.58 -70.10,64.13 -75.83,72.67 -77.15,76.75 -78.48,80.82 -78.69,81.06 -78.90,81.31 -79.17,81.50 -79.43,81.69 -79.74,81.81 -80.04,81.93 -80.36,81.97 -80.68,82.02 -81.01,81.98 -81.33,81.95 -81.64,81.84 -81.94,81.73 -82.21,81.55 -82.48,81.37 -82.70,81.13 -82.92,80.89 -83.08,80.60 -83.24,80.31 -83.32,80.00 -83.40,79.68 -83.41,79.36 -83.41,79.03 -83.34,78.72 -83.26,78.40 -83.12,78.11 -82.97,77.82 -75.01,76.84 -67.05,75.86 -55.76,72.69 -44.48,69.52 -34.32,67.18 -24.17,64.84 -17.01,64.62 -9.86,64.40 -5.66,66.94 -1.46,69.48 -0.67,75.07 0.11,80.66 -3.44,90.37 -6.99,100.08 -13.72,112.57 -20.46,125.05 -26.92,137.34 -33.38,149.62 -34.75,156.41 -36.13,163.19 -28.41,166.76 -20.68,170.32 -8.70,171.53 3.27,172.73 14.36,174.46 25.46,176.19 31.05,178.58 36.64,180.98 38.47,185.01 40.30,189.04 37.65,194.81 35.00,200.59 30.57,207.60 26.13,214.60 23.22,221.02 20.31,227.43 21.16,231.04 22.00,234.65 26.20,236.60 30.41,238.55 34.09,240.37 37.77,242.18 40.26,244.24 42.74,246.30 44.11,248.98 45.49,251.66 45.50,255.23 45.51,258.80 43.81,263.30 42.12,267.80 40.00,272.30 37.89,276.79 36.98,281.17 36.08,285.56 35.84,286.10 35.60,286.65 35.20,287.08 34.80,287.52 34.27,287.81 33.75,288.10 33.17,288.21 32.58,288.31 32.00,288.23 31.41,288.14 30.88,287.88 30.35,287.61 29.93,287.18 29.51,286.76 29.25,286.22 28.99,285.69 28.92,285.10 28.84,284.51 28.96,283.93 29.08,283.34 29.37,282.83 29.67,282.31 30.12,281.92 30.56,281.52 31.11,281.29 31.66,281.06 32.25,281.02 32.85,280.98 33.42,281.13 34.00,281.27 34.50,281.60 34.99,281.92 35.36,282.39 35.73,282.86 35.93,283.42 36.13,283.98 36.14,284.57 36.15,285.17 35.97,285.73 35.80,286.30 35.44,286.78 35.09,287.26 34.61,287.60 34.12,287.95 33.55,288.12 32.98,288.29 32.39,288.26 31.79,288.24 31.24,288.03 30.68,287.82 30.22,287.45 29.76,287.07 29.44,286.57 29.13,286.06 28.99,285.48 28.85,284.91 28.90,284.31 28.96,283.72 28.96,283.72 28.96,283.72 30.41,278.93 31.87,274.14 33.66,269.80 35.45,265.46 36.63,261.80 37.81,258.13 37.97,254.39 38.13,250.64 36.70,248.83 35.27,247.03 31.55,245.16 27.83,243.29 22.72,240.18 17.62,237.07 16.41,231.47 15.20,225.87 18.29,218.74 21.37,211.62 25.63,204.79 29.89,197.97 32.36,193.76 34.83,189.55 34.26,187.22 33.70,184.89 29.16,183.15 24.61,181.40 13.66,179.70 2.70,178.00 -10.12,176.55 -22.95,175.10 -31.23,170.62 -39.50,166.14 -38.83,156.69 -38.16,147.24 -31.69,134.87 -25.22,122.49 -18.66,110.32 -12.10,98.14 -8.74,89.52 -5.38,80.90 -5.44,76.73 -5.51,72.56 -7.84,71.07 -10.18,69.58 -16.58,69.81 -22.99,70.04 -33.01,72.36 -43.04,74.68 -54.88,77.97 -66.73,81.25 -72.60,81.03 -78.48,80.82 -78.69,81.06 -78.90,81.31 -79.17,81.50 -79.43,81.69 -79.74,81.81 -80.04,81.93 -80.36,81.97 -80.68,82.02 -81.01,81.98 -81.33,81.95 -81.64,81.84 -81.94,81.73 -82.21,81.55 -82.48,81.37 -82.70,81.13 -82.92,80.89 -83.08,80.60 -83.24,80.31 -83.32,80.00 -83.40,79.68 -83.41,79.36 -83.41,79.03 -83.34,78.72 -83.26,78.40 -83.12,78.11 -82.97,77.82 -81.68,73.76 -80.39,69.70 -74.54,60.91 -68.69,52.13 -59.47,40.60 -50.25,29.07 -41.25,20.61 -32.25,12.15 -23.87,6.95 -15.48,1.75 -8.21,-0.60 -0.94,-2.97 -0.57,-3.04 -0.20,-3.11 0.17,-3.09 0.55,-3.07 0.91,-2.96 1.27,-2.85 1.59,-2.66 1.91,-2.46 2.18,-2.20 2.45,-1.93 2.64,-1.61 2.84,-1.29 2.95,-0.93 3.07,-0.57 3.09,-0.19 3.11,0.17 3.05,0.54 2.98,0.91 2.83,1.26 2.67,1.60 2.44,1.90 2.21,2.20 1.92,2.43 1.62,2.66 1.28,2.82 0.94,2.97 0.94,2.97 L 0.94,2.97 Z"/></g><g transform="translate(162.6666259765625 94) rotate(0 4.33331298828125 22.3333740234375)" stroke="none"><path fill="#1e1e1e" d="M 4.02,-0.28 Q 4.02,-0.28 4.21,5.09 4.41,10.47 5.37,16.61 6.33,22.75 7.64,28.20 8.95,33.66 10.28,38.07 11.62,42.48 11.67,43.05 11.72,43.63 11.58,44.19 11.45,44.75 11.14,45.24 10.83,45.73 10.38,46.09 9.94,46.46 9.40,46.66 8.86,46.86 8.28,46.88 7.70,46.90 7.15,46.74 6.59,46.57 6.12,46.24 5.65,45.91 5.31,45.44 4.97,44.97 4.80,44.42 4.62,43.87 4.64,43.29 4.65,42.72 4.84,42.17 5.04,41.63 5.40,41.18 5.76,40.72 6.24,40.41 6.72,40.09 7.28,39.95 7.84,39.81 8.42,39.85 9.00,39.89 9.53,40.12 10.06,40.34 10.49,40.72 10.92,41.11 11.21,41.61 11.50,42.11 11.61,42.68 11.73,43.24 11.65,43.81 11.58,44.39 11.32,44.91 11.07,45.43 10.67,45.84 10.26,46.25 9.75,46.51 9.23,46.77 8.66,46.85 8.09,46.93 7.52,46.83 6.95,46.72 6.45,46.44 5.94,46.16 5.55,45.73 5.16,45.31 4.93,44.78 4.70,44.25 4.70,44.25 4.70,44.25 3.75,39.75 2.80,35.24 1.24,29.59 -0.31,23.93 -1.60,17.46 -2.88,10.99 -3.45,5.64 -4.02,0.28 -3.99,-0.19 -3.97,-0.68 -3.83,-1.14 -3.69,-1.61 -3.44,-2.03 -3.20,-2.45 -2.86,-2.80 -2.52,-3.14 -2.10,-3.40 -1.69,-3.66 -1.23,-3.80 -0.77,-3.95 -0.28,-3.99 0.19,-4.02 0.67,-3.94 1.15,-3.86 1.60,-3.66 2.04,-3.47 2.43,-3.17 2.82,-2.88 3.12,-2.50 3.42,-2.12 3.63,-1.68 3.83,-1.24 3.93,-0.76 4.02,-0.28 4.02,-0.28 L 4.02,-0.28 Z"/></g><g transform="translate(166 126.66668701171875) rotate(0 8 -6.666656494140625)" stroke="none"><path fill="#1e1e1e" d="M -1.84,-4.31 Q -1.84,-4.31 0.81,-5.47 3.48,-6.63 5.30,-8.02 7.12,-9.42 9.04,-12.21 10.97,-15.00 11.56,-15.55 12.15,-16.10 12.89,-16.42 13.63,-16.75 14.43,-16.83 15.24,-16.91 16.02,-16.73 16.81,-16.54 17.50,-16.12 18.18,-15.69 18.70,-15.07 19.21,-14.45 19.50,-13.69 19.79,-12.94 19.82,-12.13 19.86,-11.32 19.63,-10.55 19.41,-9.77 18.94,-9.11 18.48,-8.45 17.83,-7.97 17.18,-7.49 16.42,-7.24 15.65,-6.99 14.84,-7.00 14.03,-7.01 13.27,-7.28 12.51,-7.55 11.87,-8.04 11.23,-8.54 10.79,-9.22 10.34,-9.89 10.14,-10.67 9.93,-11.45 9.99,-12.26 10.04,-13.06 10.35,-13.81 10.66,-14.56 11.19,-15.17 11.72,-15.77 12.42,-16.18 13.11,-16.59 13.90,-16.75 14.70,-16.92 15.50,-16.82 16.30,-16.72 17.03,-16.37 17.76,-16.02 18.34,-15.46 18.92,-14.90 19.28,-14.18 19.65,-13.46 19.77,-12.66 19.89,-11.86 19.75,-11.07 19.61,-10.27 19.22,-9.56 18.84,-8.85 18.84,-8.86 18.84,-8.86 15.80,-5.29 12.76,-1.72 10.00,0.15 7.24,2.03 4.54,3.17 1.84,4.31 1.30,4.47 0.76,4.63 0.19,4.65 -0.36,4.67 -0.92,4.56 -1.47,4.45 -1.98,4.21 -2.49,3.97 -2.93,3.61 -3.37,3.25 -3.71,2.80 -4.05,2.35 -4.28,1.83 -4.50,1.31 -4.59,0.75 -4.68,0.19 -4.64,-0.36 -4.60,-0.92 -4.42,-1.46 -4.24,-2.00 -3.94,-2.48 -3.64,-2.96 -3.23,-3.35 -2.82,-3.74 -2.33,-4.02 -1.84,-4.31 -1.84,-4.31 L -1.84,-4.31 Z"/></g><g transform="translate(176.6666259765625 86.66668701171875) rotate(0 6 28)" stroke="none"><path fill="#1e1e1e" d="M 3.80,-1.10 Q 3.80,-1.10 5.36,4.88 6.91,10.88 7.95,19.04 8.99,27.19 9.94,33.79 10.89,40.39 11.64,44.70 12.39,49.00 13.53,51.63 14.67,54.25 14.76,54.78 14.86,55.31 14.79,55.84 14.71,56.38 14.47,56.86 14.23,57.34 13.84,57.72 13.46,58.10 12.98,58.33 12.49,58.57 11.96,58.64 11.42,58.71 10.90,58.61 10.37,58.50 9.90,58.23 9.43,57.97 9.07,57.56 8.72,57.16 8.51,56.66 8.30,56.17 8.26,55.63 8.21,55.09 8.35,54.57 8.48,54.05 8.77,53.60 9.07,53.14 9.49,52.81 9.91,52.47 10.42,52.29 10.92,52.11 11.46,52.10 12.00,52.08 12.52,52.25 13.03,52.41 13.47,52.72 13.90,53.04 14.21,53.48 14.52,53.92 14.68,54.43 14.84,54.95 14.82,55.49 14.80,56.03 14.61,56.53 14.42,57.04 14.08,57.46 13.74,57.87 13.29,58.16 12.83,58.45 12.31,58.58 11.78,58.70 11.25,58.66 10.71,58.61 10.22,58.39 9.72,58.18 9.32,57.81 8.92,57.45 8.66,56.98 8.40,56.51 8.40,56.51 8.40,56.51 7.44,53.33 6.48,50.14 5.58,45.76 4.67,41.38 3.52,34.76 2.37,28.13 1.17,20.50 -0.01,12.88 -1.91,6.99 -3.80,1.10 -3.88,0.63 -3.96,0.16 -3.92,-0.31 -3.88,-0.79 -3.73,-1.24 -3.58,-1.69 -3.32,-2.10 -3.07,-2.50 -2.72,-2.83 -2.38,-3.16 -1.96,-3.40 -1.55,-3.64 -1.09,-3.77 -0.63,-3.91 -0.16,-3.93 0.31,-3.95 0.78,-3.85 1.25,-3.76 1.68,-3.55 2.11,-3.35 2.48,-3.04 2.85,-2.74 3.14,-2.36 3.43,-1.98 3.61,-1.54 3.80,-1.10 3.80,-1.10 L 3.80,-1.10 Z"/></g></svg>