<svg xmlns="http://www.w3.org/2000/svg" xmlns:xlink="http://www.w3.org/1999/xlink" width="2194" height="1260" xml:space="preserve" overflow="hidden"><defs><clipPath id="clip0"><rect x="2172" y="931" width="2194" height="1260"/></clipPath><clipPath id="clip1"><rect x="3592" y="962" width="51" height="2045"/></clipPath><clipPath id="clip2"><rect x="3592" y="962" width="51" height="2045"/></clipPath><clipPath id="clip3"><rect x="3592" y="962" width="51" height="2045"/></clipPath><clipPath id="clip4"><rect x="3659" y="969" width="51" height="2028"/></clipPath><clipPath id="clip5"><rect x="3659" y="969" width="51" height="2028"/></clipPath><clipPath id="clip6"><rect x="3659" y="969" width="51" height="2028"/></clipPath><clipPath id="clip7"><rect x="4263" y="899" width="51" height="2192"/></clipPath><clipPath id="clip8"><rect x="4263" y="899" width="51" height="2192"/></clipPath><clipPath id="clip9"><rect x="4263" y="899" width="51" height="2192"/></clipPath></defs><g clip-path="url(#clip0)" transform="translate(-2172 -931)"><rect x="2173" y="932" width="2191" height="1257" fill="#FFFFFF"/><g><path d="M2334.5 1741.56 4313.5 1741.56M2334.5 1670.55 4313.5 1670.55M2334.5 1599.55 4313.5 1599.55M2334.5 1528.55 4313.5 1528.55M2334.5 1457.55 4313.5 1457.55M2334.5 1386.55 4313.5 1386.55M2334.5 1315.54 4313.5 1315.54M2334.5 1244.54 4313.5 1244.54M2334.5 1173.54 4313.5 1173.54M2334.5 1102.5 4313.5 1102.5" stroke="#D9D9D9" stroke-width="3.4375" stroke-linejoin="round" stroke-miterlimit="10" fill="none"/></g><g><path d="M2334.5 1812.5 4313.5 1812.5" stroke="#D9D9D9" stroke-width="3.4375" stroke-linejoin="round" stroke-miterlimit="10" fill="none" fill-rule="evenodd"/></g><g><path d="M2343 1813 2360.08 1813 2376.08 1813 2393.08 1813 2410.08 1813 2427.08 1813 2443.08 1813 2460.08 1813 2477.08 1813 2494.08 1813 2510.08 1813 2527.08 1813 2544.08 1813 2561.08 1813 2578.08 1813 2594.09 1813 2611.09 1813 2628.09 1556.05 2645.09 1813 2661.09 1813 2678.09 1796.06 2695.09 1743.06 2712.09 1712.06 2729.09 1742.06 2745.09 1771.06 2762.09 1789.06 2779.09 1807.06 2796.09 1800.06 2812.09 1791.06 2829.09 1800.06 2846.09 1776.06 2863.09 1749.06 2880.09 1794.06 2896.09 1658.05 2913.1 1768.06 2930.1 1696.06 2947.1 1692.06 2963.1 1708.06 2980.1 1743.06 2997.1 1171 3014.1 1798.06 3030.1 1804.06 3047.1 1800.06 3064.1 1793.06 3081.1 1808.06 3098.1 1764.06 3114.1 1779.06 3131.1 1786.06 3148.1 1808.06 3165.1 1799.06 3181.1 1810.06 3198.1 1795.06 3215.11 1785.06 3232.11 1793.06 3249.11 1759.06 3265.11 1795.06 3282.11 1801.06 3299.11 1807.06 3316.11 1813 3332.11 1811.06 3349.11 1813 3366.11 1809.06 3383.11 1796.06 3400.11 1798.06 3416.11 1803.06 3433.11 1808.06 3450.11 1809.06 3467.11 1808.06 3483.11 1804.06 3500.11 1808.06 3517.12 1811.06 3534.12 1811.06 3550.12 1804.06 3567.12 1796.06 3584.12 1791.06 3601.12 1806.06 3618.12 1803.06 3634.12 1806.06 3651.12 1809.06 3668.12 1811.06 3685.12 1811.06 3701.12 1811.06 3718.12 1811.06 3735.12 1813 3752.12 1813 3769.12 1173.04 3785.12 1813 3802.12 1811.06 3819.13 1813 3836.13 1813 3852.13 1813 3869.13 1813 3886.13 1813 3903.13 1813 3920.13 1813 3936.13 1813 3953.13 1813 3970.13 1813 3987.13 1813 4003.13 1813 4020.13 1813 4037.13 1811.06 4054.13 1811.06 4070.13 1811.06 4087.13 1809.06 4104.13 1811.06 4121.14 1809.06 4138.14 1811.06 4154.14 1811.06 4171.14 1813 4188.14 1813 4205.14 1813 4221.14 1813 4238.14 1813 4255.14 1813 4272.14 1173.04 4289.14 1173.04 4305 1813" stroke="#156082" stroke-width="10.3125" stroke-linecap="round" stroke-linejoin="round" stroke-miterlimit="10" fill="none"/></g><g><text fill="#595959" font-family="Aptos Narrow,Aptos Narrow_MSFontService,sans-serif" font-weight="400" font-stretch="semi-condensed" font-size="41" transform="matrix(1 0 0 1 2244.09 1824)">0%</text></g><g><text fill="#595959" font-family="Aptos Narrow,Aptos Narrow_MSFontService,sans-serif" font-weight="400" font-stretch="semi-condensed" font-size="41" transform="matrix(1 0 0 1 2223.19 1753)">10%</text></g><g><text fill="#595959" font-family="Aptos Narrow,Aptos Narrow_MSFontService,sans-serif" font-weight="400" font-stretch="semi-condensed" font-size="41" transform="matrix(1 0 0 1 2223.19 1682)">20%</text></g><g><text fill="#595959" font-family="Aptos Narrow,Aptos Narrow_MSFontService,sans-serif" font-weight="400" font-stretch="semi-condensed" font-size="41" transform="matrix(1 0 0 1 2223.19 1611)">30%</text></g><g><text fill="#595959" font-family="Aptos Narrow,Aptos Narrow_MSFontService,sans-serif" font-weight="400" font-stretch="semi-condensed" font-size="41" transform="matrix(1 0 0 1 2223.19 1540)">40%</text></g><g><text fill="#595959" font-family="Aptos Narrow,Aptos Narrow_MSFontService,sans-serif" font-weight="400" font-stretch="semi-condensed" font-size="41" transform="matrix(1 0 0 1 2223.19 1469)">50%</text></g><g><text fill="#595959" font-family="Aptos Narrow,Aptos Narrow_MSFontService,sans-serif" font-weight="400" font-stretch="semi-condensed" font-size="41" transform="matrix(1 0 0 1 2223.19 1398)">60%</text></g><g><text fill="#595959" font-family="Aptos Narrow,Aptos Narrow_MSFontService,sans-serif" font-weight="400" font-stretch="semi-condensed" font-size="41" transform="matrix(1 0 0 1 2223.19 1327)">70%</text></g><g><text fill="#595959" font-family="Aptos Narrow,Aptos Narrow_MSFontService,sans-serif" font-weight="400" font-stretch="semi-condensed" font-size="41" transform="matrix(1 0 0 1 2223.19 1256)">80%</text></g><g><text fill="#595959" font-family="Aptos Narrow,Aptos Narrow_MSFontService,sans-serif" font-weight="400" font-stretch="semi-condensed" font-size="41" transform="matrix(1 0 0 1 2223.19 1185)">90%</text></g><g><text fill="#595959" font-family="Aptos Narrow,Aptos Narrow_MSFontService,sans-serif" font-weight="400" font-stretch="semi-condensed" font-size="41" transform="matrix(1 0 0 1 2202.29 1114)">100%</text></g><g><text fill="#595959" font-family="Aptos Narrow,Aptos Narrow_MSFontService,sans-serif" font-weight="400" font-stretch="semi-condensed" font-size="41" transform="matrix(6.12323e-17 -1 1 6.12323e-17 2356.66 2102)">1st (1789-1791)</text></g><g><text fill="#595959" font-family="Aptos Narrow,Aptos Narrow_MSFontService,sans-serif" font-weight="400" font-stretch="semi-condensed" font-size="41" transform="matrix(6.12323e-17 -1 1 6.12323e-17 2423.76 2105)">5th (1797-1799)</text></g><g><text fill="#595959" font-family="Aptos Narrow,Aptos Narrow_MSFontService,sans-serif" font-weight="400" font-stretch="semi-condensed" font-size="41" transform="matrix(6.12323e-17 -1 1 6.12323e-17 2490.86 2105)">9th (1805-1807)</text></g><g><text fill="#595959" font-family="Aptos Narrow,Aptos Narrow_MSFontService,sans-serif" font-weight="400" font-stretch="semi-condensed" font-size="41" transform="matrix(6.12323e-17 -1 1 6.12323e-17 2557.95 2126)">13th (1813-1815)</text></g><g><text fill="#595959" font-family="Aptos Narrow,Aptos Narrow_MSFontService,sans-serif" font-weight="400" font-stretch="semi-condensed" font-size="41" transform="matrix(6.12323e-17 -1 1 6.12323e-17 2625.05 2126)">17th (1821-1823)</text></g><g><text fill="#595959" font-family="Aptos Narrow,Aptos Narrow_MSFontService,sans-serif" font-weight="400" font-stretch="semi-condensed" font-size="41" transform="matrix(6.12323e-17 -1 1 6.12323e-17 2692.15 2123)">21st (1829-1831)</text></g><g><text fill="#595959" font-family="Aptos Narrow,Aptos Narrow_MSFontService,sans-serif" font-weight="400" font-stretch="semi-condensed" font-size="41" transform="matrix(6.12323e-17 -1 1 6.12323e-17 2759.25 2126)">25th (1837-1839)</text></g><g><text fill="#595959" font-family="Aptos Narrow,Aptos Narrow_MSFontService,sans-serif" font-weight="400" font-stretch="semi-condensed" font-size="41" transform="matrix(6.12323e-17 -1 1 6.12323e-17 2826.35 2126)">29th (1845-1847)</text></g><g><text fill="#595959" font-family="Aptos Narrow,Aptos Narrow_MSFontService,sans-serif" font-weight="400" font-stretch="semi-condensed" font-size="41" transform="matrix(6.12323e-17 -1 1 6.12323e-17 2893.44 2127)">33rd (1853-1855)</text></g><g><text fill="#595959" font-family="Aptos Narrow,Aptos Narrow_MSFontService,sans-serif" font-weight="400" font-stretch="semi-condensed" font-size="41" transform="matrix(6.12323e-17 -1 1 6.12323e-17 2960.54 2126)">37th (1861-1863)</text></g><g><text fill="#595959" font-family="Aptos Narrow,Aptos Narrow_MSFontService,sans-serif" font-weight="400" font-stretch="semi-condensed" font-size="41" transform="matrix(6.12323e-17 -1 1 6.12323e-17 3027.64 2123)">41st (1869-1871)</text></g><g><text fill="#595959" font-family="Aptos Narrow,Aptos Narrow_MSFontService,sans-serif" font-weight="400" font-stretch="semi-condensed" font-size="41" transform="matrix(6.12323e-17 -1 1 6.12323e-17 3094.74 2126)">45th (1877-1879)</text></g><g><text fill="#595959" font-family="Aptos Narrow,Aptos Narrow_MSFontService,sans-serif" font-weight="400" font-stretch="semi-condensed" font-size="41" transform="matrix(6.12323e-17 -1 1 6.12323e-17 3161.83 2126)">49th (1885-1887)</text></g><g><text fill="#595959" font-family="Aptos Narrow,Aptos Narrow_MSFontService,sans-serif" font-weight="400" font-stretch="semi-condensed" font-size="41" transform="matrix(6.12323e-17 -1 1 6.12323e-17 3228.93 2127)">53rd (1893-1895)</text></g><g><text fill="#595959" font-family="Aptos Narrow,Aptos Narrow_MSFontService,sans-serif" font-weight="400" font-stretch="semi-condensed" font-size="41" transform="matrix(6.12323e-17 -1 1 6.12323e-17 3296.03 2126)">57th (1901-1903)</text></g><g><text fill="#595959" font-family="Aptos Narrow,Aptos Narrow_MSFontService,sans-serif" font-weight="400" font-stretch="semi-condensed" font-size="41" transform="matrix(6.12323e-17 -1 1 6.12323e-17 3363.13 2123)">61st (1909-1911)</text></g><g><text fill="#595959" font-family="Aptos Narrow,Aptos Narrow_MSFontService,sans-serif" font-weight="400" font-stretch="semi-condensed" font-size="41" transform="matrix(6.12323e-17 -1 1 6.12323e-17 3430.23 2126)">65th (1917-1919)</text></g><g><text fill="#595959" font-family="Aptos Narrow,Aptos Narrow_MSFontService,sans-serif" font-weight="400" font-stretch="semi-condensed" font-size="41" transform="matrix(6.12323e-17 -1 1 6.12323e-17 3497.32 2126)">69th (1925-1927)</text></g><g><text fill="#595959" font-family="Aptos Narrow,Aptos Narrow_MSFontService,sans-serif" font-weight="400" font-stretch="semi-condensed" font-size="41" transform="matrix(6.12323e-17 -1 1 6.12323e-17 3564.42 2127)">73rd (1933-1935)</text></g><g><g clip-path="url(#clip1)"><text fill="#595959" font-family="Aptos Narrow,Aptos Narrow_MSFontService,sans-serif" font-weight="400" font-stretch="semi-condensed" font-size="41" transform="matrix(6.12323e-17 -1 1 6.12323e-17 3631.52 2131)">77th (1941</text></g></g><g><g clip-path="url(#clip2)"><text fill="#595959" font-family="Aptos Narrow,Aptos Narrow_MSFontService,sans-serif" font-weight="400" font-stretch="semi-condensed" font-size="41" transform="matrix(6.12323e-17 -1 1 6.12323e-17 3631.52 1952)">–</text></g></g><g><g clip-path="url(#clip3)"><text fill="#595959" font-family="Aptos Narrow,Aptos Narrow_MSFontService,sans-serif" font-weight="400" font-stretch="semi-condensed" font-size="41" transform="matrix(6.12323e-17 -1 1 6.12323e-17 3631.52 1935)">1943)</text></g></g><g><g clip-path="url(#clip4)"><text fill="#595959" font-family="Aptos Narrow,Aptos Narrow_MSFontService,sans-serif" font-weight="400" font-stretch="semi-condensed" font-size="41" transform="matrix(6.12323e-17 -1 1 6.12323e-17 3698.62 2128)">81st (1949</text></g></g><g><g clip-path="url(#clip5)"><text fill="#595959" font-family="Aptos Narrow,Aptos Narrow_MSFontService,sans-serif" font-weight="400" font-stretch="semi-condensed" font-size="41" transform="matrix(6.12323e-17 -1 1 6.12323e-17 3698.62 1952)">–</text></g></g><g><g clip-path="url(#clip6)"><text fill="#595959" font-family="Aptos Narrow,Aptos Narrow_MSFontService,sans-serif" font-weight="400" font-stretch="semi-condensed" font-size="41" transform="matrix(6.12323e-17 -1 1 6.12323e-17 3698.62 1935)">1951)</text></g></g><g><g><text fill="#595959" font-family="Aptos Narrow,Aptos Narrow_MSFontService,sans-serif" font-weight="400" font-stretch="semi-condensed" font-size="41" transform="matrix(6.12323e-17 -1 1 6.12323e-17 3765.72 2131)">85th (1957</text></g></g><g><g><text fill="#595959" font-family="Aptos Narrow,Aptos Narrow_MSFontService,sans-serif" font-weight="400" font-stretch="semi-condensed" font-size="41" transform="matrix(6.12323e-17 -1 1 6.12323e-17 3765.72 1952)">–</text></g></g><g><g><text fill="#595959" font-family="Aptos Narrow,Aptos Narrow_MSFontService,sans-serif" font-weight="400" font-stretch="semi-condensed" font-size="41" transform="matrix(6.12323e-17 -1 1 6.12323e-17 3765.72 1935)">1959)</text></g></g><g><g><text fill="#595959" font-family="Aptos Narrow,Aptos Narrow_MSFontService,sans-serif" font-weight="400" font-stretch="semi-condensed" font-size="41" transform="matrix(6.12323e-17 -1 1 6.12323e-17 3832.82 2131)">89th (1965</text></g></g><g><g><text fill="#595959" font-family="Aptos Narrow,Aptos Narrow_MSFontService,sans-serif" font-weight="400" font-stretch="semi-condensed" font-size="41" transform="matrix(6.12323e-17 -1 1 6.12323e-17 3832.82 1952)">–</text></g></g><g><g><text fill="#595959" font-family="Aptos Narrow,Aptos Narrow_MSFontService,sans-serif" font-weight="400" font-stretch="semi-condensed" font-size="41" transform="matrix(6.12323e-17 -1 1 6.12323e-17 3832.82 1935)">1967)</text></g></g><g><g><text fill="#595959" font-family="Aptos Narrow,Aptos Narrow_MSFontService,sans-serif" font-weight="400" font-stretch="semi-condensed" font-size="41" transform="matrix(6.12323e-17 -1 1 6.12323e-17 3899.91 2131)">93rd (1973</text></g></g><g><g><text fill="#595959" font-family="Aptos Narrow,Aptos Narrow_MSFontService,sans-serif" font-weight="400" font-stretch="semi-condensed" font-size="41" transform="matrix(6.12323e-17 -1 1 6.12323e-17 3899.91 1952)">–</text></g></g><g><g><text fill="#595959" font-family="Aptos Narrow,Aptos Narrow_MSFontService,sans-serif" font-weight="400" font-stretch="semi-condensed" font-size="41" transform="matrix(6.12323e-17 -1 1 6.12323e-17 3899.91 1935)">1975)</text></g></g><g><g><text fill="#595959" font-family="Aptos Narrow,Aptos Narrow_MSFontService,sans-serif" font-weight="400" font-stretch="semi-condensed" font-size="41" transform="matrix(6.12323e-17 -1 1 6.12323e-17 3967.01 2131)">97th (1981</text></g></g><g><g><text fill="#595959" font-family="Aptos Narrow,Aptos Narrow_MSFontService,sans-serif" font-weight="400" font-stretch="semi-condensed" font-size="41" transform="matrix(6.12323e-17 -1 1 6.12323e-17 3967.01 1952)">–</text></g></g><g><g><text fill="#595959" font-family="Aptos Narrow,Aptos Narrow_MSFontService,sans-serif" font-weight="400" font-stretch="semi-condensed" font-size="41" transform="matrix(6.12323e-17 -1 1 6.12323e-17 3967.01 1935)">1983)</text></g></g><g><g><text fill="#595959" font-family="Aptos Narrow,Aptos Narrow_MSFontService,sans-serif" font-weight="400" font-stretch="semi-condensed" font-size="41" transform="matrix(6.12323e-17 -1 1 6.12323e-17 4034.11 2149)">101st (1989</text></g></g><g><g><text fill="#595959" font-family="Aptos Narrow,Aptos Narrow_MSFontService,sans-serif" font-weight="400" font-stretch="semi-condensed" font-size="41" transform="matrix(6.12323e-17 -1 1 6.12323e-17 4034.11 1952)">–</text></g></g><g><g><text fill="#595959" font-family="Aptos Narrow,Aptos Narrow_MSFontService,sans-serif" font-weight="400" font-stretch="semi-condensed" font-size="41" transform="matrix(6.12323e-17 -1 1 6.12323e-17 4034.11 1935)">1991)</text></g></g><g><g><text fill="#595959" font-family="Aptos Narrow,Aptos Narrow_MSFontService,sans-serif" font-weight="400" font-stretch="semi-condensed" font-size="41" transform="matrix(6.12323e-17 -1 1 6.12323e-17 4101.21 2151)">105th (1997</text></g></g><g><g><text fill="#595959" font-family="Aptos Narrow,Aptos Narrow_MSFontService,sans-serif" font-weight="400" font-stretch="semi-condensed" font-size="41" transform="matrix(6.12323e-17 -1 1 6.12323e-17 4101.21 1952)">–</text></g></g><g><g><text fill="#595959" font-family="Aptos Narrow,Aptos Narrow_MSFontService,sans-serif" font-weight="400" font-stretch="semi-condensed" font-size="41" transform="matrix(6.12323e-17 -1 1 6.12323e-17 4101.21 1935)">1999)</text></g></g><g><g><text fill="#595959" font-family="Aptos Narrow,Aptos Narrow_MSFontService,sans-serif" font-weight="400" font-stretch="semi-condensed" font-size="41" transform="matrix(6.12323e-17 -1 1 6.12323e-17 4168.31 2151)">109th (2005</text></g></g><g><g><text fill="#595959" font-family="Aptos Narrow,Aptos Narrow_MSFontService,sans-serif" font-weight="400" font-stretch="semi-condensed" font-size="41" transform="matrix(6.12323e-17 -1 1 6.12323e-17 4168.31 1952)">–</text></g></g><g><g><text fill="#595959" font-family="Aptos Narrow,Aptos Narrow_MSFontService,sans-serif" font-weight="400" font-stretch="semi-condensed" font-size="41" transform="matrix(6.12323e-17 -1 1 6.12323e-17 4168.31 1935)">2007)</text></g></g><g><g><text fill="#595959" font-family="Aptos Narrow,Aptos Narrow_MSFontService,sans-serif" font-weight="400" font-stretch="semi-condensed" font-size="41" transform="matrix(6.12323e-17 -1 1 6.12323e-17 4235.4 2159)">113th (2013</text></g></g><g><g><text fill="#595959" font-family="Aptos Narrow,Aptos Narrow_MSFontService,sans-serif" font-weight="400" font-stretch="semi-condensed" font-size="41" transform="matrix(6.12323e-17 -1 1 6.12323e-17 4235.4 1960)">–</text></g></g><g><g><text fill="#595959" font-family="Aptos Narrow,Aptos Narrow_MSFontService,sans-serif" font-weight="400" font-stretch="semi-condensed" font-size="41" transform="matrix(6.12323e-17 -1 1 6.12323e-17 4235.4 1942)">2015)</text></g></g><g><g clip-path="url(#clip7)"><text fill="#595959" font-family="Aptos Narrow,Aptos Narrow_MSFontService,sans-serif" font-weight="400" font-stretch="semi-condensed" font-size="41" transform="matrix(6.12323e-17 -1 1 6.12323e-17 4302.5 2151)">117th (2021</text></g></g><g><g clip-path="url(#clip8)"><text fill="#595959" font-family="Aptos Narrow,Aptos Narrow_MSFontService,sans-serif" font-weight="400" font-stretch="semi-condensed" font-size="41" transform="matrix(6.12323e-17 -1 1 6.12323e-17 4302.5 1952)">–</text></g></g><g><g clip-path="url(#clip9)"><text fill="#595959" font-family="Aptos Narrow,Aptos Narrow_MSFontService,sans-serif" font-weight="400" font-stretch="semi-condensed" font-size="41" transform="matrix(6.12323e-17 -1 1 6.12323e-17 4302.5 1935)">2023)</text></g></g><g><text fill="#595959" font-family="Aptos Narrow,Aptos Narrow_MSFontService,sans-serif" font-weight="400" font-stretch="semi-condensed" font-size="64" transform="matrix(1 0 0 1 3172.69 1027)">Prozent</text></g><rect x="2173.5" y="932.5" width="2191" height="1257" stroke="#D9D9D9" stroke-width="3.4375" stroke-linejoin="round" stroke-miterlimit="10" fill="none"/></g></svg>