<svg version="1.1" xmlns="http://www.w3.org/2000/svg" viewBox="0 0 231.3333740234375 324.0000305175781" width="231.3333740234375" height="324.0000305175781" class="excalidraw-svg">
  <!-- svg-source:excalidraw -->
  
  <defs>
    <style class="style-fonts">
      @font-face {
        font-family: "Virgil";
        src: url("https://excalidraw.com/Virgil.woff2");
      }
      @font-face {
        font-family: "Cascadia";
        src: url("https://excalidraw.com/Cascadia.woff2");
      }
      @font-face {
        font-family: "Assistant";
        src: url("https://excalidraw.com/Assistant-Regular.woff2");
      }
    </style>
    
  </defs>
  <g transform="translate(96.6666259765625 10.666656494140625) rotate(0 -1.33331298828125 151.33335876464844)" stroke="none"><path fill="#1e1e1e" d="M 0.69,3.04 Q 0.69,3.04 -3.49,3.92 -7.68,4.79 -12.65,8.38 -17.62,11.98 -24.20,18.25 -30.78,24.52 -38.52,34.01 -46.26,43.50 -53.92,55.68 -61.57,67.87 -67.45,82.10 -73.34,96.34 -76.39,110.27 -79.44,124.20 -77.59,136.11 -75.75,148.02 -67.71,154.99 -59.67,161.96 -41.70,164.36 -23.73,166.76 -0.78,165.21 22.16,163.65 38.92,162.42 55.68,161.19 64.27,161.43 72.85,161.68 75.81,165.28 78.78,168.89 77.24,173.84 75.70,178.80 71.01,185.66 66.31,192.51 58.74,201.72 51.18,210.92 44.19,220.11 37.20,229.30 32.41,238.40 27.62,247.50 25.06,256.37 22.49,265.25 21.39,272.78 20.30,280.31 20.21,286.29 20.12,292.27 21.09,296.54 22.05,300.81 22.06,301.31 22.06,301.82 21.90,302.29 21.74,302.77 21.44,303.17 21.13,303.57 20.72,303.85 20.31,304.14 19.82,304.27 19.34,304.41 18.84,304.38 18.34,304.36 17.87,304.17 17.40,303.99 17.02,303.67 16.63,303.34 16.37,302.91 16.11,302.48 16.00,301.99 15.89,301.50 15.95,301.00 16.00,300.50 16.21,300.05 16.42,299.59 16.76,299.23 17.11,298.86 17.55,298.62 17.99,298.39 18.49,298.30 18.98,298.22 19.48,298.30 19.97,298.38 20.42,298.61 20.86,298.85 21.21,299.21 21.56,299.57 21.77,300.03 21.98,300.48 22.04,300.98 22.09,301.48 21.99,301.97 21.88,302.46 21.62,302.89 21.36,303.33 20.98,303.65 20.60,303.98 20.14,304.17 19.67,304.35 19.17,304.38 18.67,304.41 18.18,304.28 17.70,304.15 17.28,303.86 16.87,303.58 16.56,303.19 16.26,302.79 16.09,302.31 15.93,301.84 15.93,301.84 15.93,301.84 15.38,297.02 14.82,292.20 14.92,285.87 15.03,279.55 16.19,271.65 17.35,263.76 20.10,254.38 22.85,245.01 27.85,235.52 32.86,226.03 39.89,216.73 46.92,207.43 54.30,198.39 61.69,189.34 66.02,183.04 70.36,176.73 72.02,173.25 73.69,169.77 72.46,167.97 71.24,166.16 63.65,166.31 56.07,166.45 39.29,167.68 22.51,168.92 -0.97,170.46 -24.46,172.00 -43.60,169.07 -62.75,166.13 -71.69,157.84 -80.63,149.54 -82.65,136.36 -84.68,123.18 -81.50,108.73 -78.33,94.29 -72.26,79.63 -66.20,64.98 -58.38,52.50 -50.55,40.01 -42.62,30.23 -34.68,20.45 -27.83,13.86 -20.97,7.27 -15.07,3.15 -9.17,-0.96 -4.93,-2.00 -0.69,-3.04 -0.31,-3.08 0.05,-3.12 0.42,-3.07 0.80,-3.01 1.15,-2.87 1.50,-2.73 1.80,-2.52 2.11,-2.30 2.35,-2.01 2.60,-1.72 2.77,-1.39 2.94,-1.05 3.02,-0.68 3.10,-0.31 3.10,0.05 3.09,0.43 2.99,0.79 2.90,1.16 2.71,1.49 2.53,1.82 2.28,2.09 2.02,2.37 1.71,2.58 1.40,2.79 1.04,2.91 0.69,3.04 0.69,3.04 L 0.69,3.04 Z"/></g><g transform="translate(101.3333740234375 92) rotate(0 50.6666259765625 -2.3333282470703125)" stroke="none"><path fill="#1971c2" d="M 2.57,2.40 Q 2.57,2.40 -0.14,5.24 -2.85,8.09 -5.87,11.97 -8.90,15.86 -10.89,18.63 -12.89,21.40 -13.26,22.46 -13.63,23.52 -13.94,23.84 -14.26,24.17 -14.64,24.40 -15.02,24.64 -15.45,24.78 -15.88,24.92 -16.33,24.95 -16.78,24.98 -17.22,24.91 -17.67,24.83 -18.08,24.65 -18.49,24.47 -18.85,24.20 -19.21,23.92 -19.49,23.57 -19.77,23.22 -19.96,22.81 -20.15,22.40 -20.24,21.96 -20.33,21.52 -20.30,21.07 -20.28,20.62 -20.15,20.18 -20.02,19.75 -19.79,19.36 -19.57,18.98 -16.14,16.87 -12.72,14.76 -5.64,11.05 1.44,7.34 12.75,1.95 24.06,-3.44 35.40,-8.58 46.74,-13.72 57.14,-18.19 67.54,-22.66 74.06,-24.92 80.58,-27.19 80.91,-27.28 81.23,-27.38 81.57,-27.40 81.91,-27.41 82.25,-27.35 82.58,-27.28 82.89,-27.14 83.20,-27.00 83.46,-26.78 83.73,-26.57 83.94,-26.30 84.14,-26.03 84.28,-25.72 84.41,-25.40 84.47,-25.07 84.53,-24.73 84.50,-24.39 84.48,-24.05 84.37,-23.73 84.27,-23.41 84.09,-23.12 83.91,-22.83 83.67,-22.59 83.42,-22.35 83.13,-22.18 82.83,-22.01 76.98,-18.95 71.12,-15.90 60.46,-12.27 49.80,-8.64 39.76,-5.22 29.73,-1.79 22.31,0.24 14.90,2.29 12.23,3.36 9.55,4.44 9.17,4.50 8.79,4.56 8.41,4.52 8.03,4.49 7.67,4.36 7.31,4.24 6.99,4.03 6.66,3.82 6.40,3.54 6.14,3.26 5.95,2.93 5.76,2.59 5.66,2.23 5.56,1.86 5.55,1.47 5.53,1.09 5.61,0.72 5.69,0.34 5.86,0.00 6.03,-0.34 6.28,-0.63 6.52,-0.93 6.83,-1.15 7.14,-1.38 7.49,-1.53 7.85,-1.67 11.54,-2.05 15.23,-2.42 26.25,-3.87 37.27,-5.32 51.61,-6.70 65.94,-8.07 78.99,-8.65 92.03,-9.22 100.11,-9.26 108.20,-9.30 111.38,-8.33 114.56,-7.37 114.92,-7.33 115.29,-7.29 115.63,-7.16 115.98,-7.03 116.28,-6.82 116.59,-6.62 116.83,-6.35 117.08,-6.07 117.25,-5.75 117.42,-5.42 117.51,-5.07 117.60,-4.71 117.61,-4.35 117.61,-3.98 117.53,-3.62 117.44,-3.26 117.27,-2.94 117.10,-2.61 116.86,-2.33 116.62,-2.06 116.32,-1.85 116.02,-1.64 115.68,-1.50 115.34,-1.37 114.97,-1.32 114.61,-1.28 109.22,3.13 103.84,7.55 99.10,9.25 94.37,10.95 89.99,11.99 85.62,13.02 85.11,13.00 84.61,12.97 84.14,12.79 83.67,12.61 83.29,12.28 82.90,11.96 82.64,11.53 82.37,11.10 82.26,10.61 82.15,10.12 82.20,9.61 82.25,9.11 82.46,8.65 82.67,8.20 83.01,7.83 83.36,7.46 83.80,7.22 84.24,6.98 84.74,6.90 85.24,6.81 85.74,6.89 86.23,6.97 86.68,7.20 87.13,7.43 87.48,7.80 87.83,8.16 88.04,8.62 88.25,9.07 88.31,9.57 88.37,10.07 88.27,10.57 88.16,11.06 87.90,11.49 87.65,11.93 87.27,12.26 86.88,12.58 86.42,12.77 85.95,12.96 85.45,12.99 84.94,13.02 84.46,12.89 83.97,12.76 83.55,12.48 83.13,12.20 82.82,11.80 82.52,11.40 82.35,10.93 82.19,10.45 82.18,9.95 82.18,9.44 82.34,8.96 82.50,8.49 82.80,8.08 83.10,7.68 83.52,7.39 83.93,7.11 84.42,6.97 84.90,6.83 84.90,6.83 84.90,6.83 88.61,6.13 92.33,5.43 96.63,3.79 100.94,2.15 105.16,-0.02 109.39,-2.20 111.97,-4.78 114.56,-7.37 114.92,-7.33 115.29,-7.29 115.63,-7.16 115.98,-7.03 116.28,-6.82 116.59,-6.62 116.83,-6.35 117.08,-6.07 117.25,-5.75 117.42,-5.42 117.51,-5.07 117.60,-4.71 117.61,-4.35 117.61,-3.98 117.53,-3.62 117.44,-3.26 117.27,-2.94 117.10,-2.61 116.86,-2.33 116.62,-2.06 116.32,-1.85 116.02,-1.64 115.68,-1.50 115.34,-1.37 114.97,-1.32 114.61,-1.28 111.37,-2.56 108.13,-3.84 100.21,-3.75 92.29,-3.66 79.39,-3.04 66.50,-2.42 52.28,-0.98 38.06,0.46 26.99,2.03 15.93,3.60 12.74,4.02 9.55,4.44 9.17,4.50 8.80,4.56 8.41,4.52 8.03,4.49 7.67,4.36 7.31,4.24 6.99,4.03 6.66,3.82 6.40,3.54 6.14,3.26 5.95,2.93 5.76,2.59 5.66,2.23 5.56,1.86 5.55,1.47 5.53,1.09 5.61,0.72 5.69,0.34 5.86,0.00 6.03,-0.34 6.27,-0.63 6.52,-0.93 6.83,-1.15 7.14,-1.38 7.49,-1.53 7.85,-1.67 10.63,-2.33 13.42,-2.99 20.67,-5.03 27.91,-7.07 37.92,-10.56 47.94,-14.04 58.31,-17.65 68.68,-21.25 74.63,-24.22 80.58,-27.19 80.91,-27.28 81.23,-27.38 81.57,-27.40 81.91,-27.41 82.25,-27.35 82.58,-27.28 82.89,-27.14 83.20,-27.00 83.46,-26.78 83.73,-26.57 83.94,-26.30 84.14,-26.03 84.28,-25.72 84.41,-25.40 84.47,-25.07 84.53,-24.73 84.50,-24.39 84.48,-24.05 84.37,-23.73 84.27,-23.41 84.09,-23.12 83.91,-22.83 83.67,-22.59 83.42,-22.35 83.13,-22.18 82.84,-22.01 76.34,-19.68 69.85,-17.34 59.55,-12.81 49.24,-8.27 38.03,-3.03 26.81,2.20 15.72,7.69 4.63,13.19 -2.21,17.06 -9.05,20.93 -11.34,22.22 -13.63,23.52 -13.94,23.84 -14.26,24.17 -14.64,24.40 -15.02,24.64 -15.45,24.78 -15.88,24.92 -16.33,24.95 -16.78,24.98 -17.22,24.91 -17.67,24.83 -18.08,24.65 -18.49,24.47 -18.85,24.20 -19.21,23.92 -19.49,23.57 -19.77,23.22 -19.96,22.81 -20.15,22.40 -20.24,21.96 -20.33,21.52 -20.30,21.07 -20.28,20.62 -20.15,20.19 -20.02,19.75 -19.79,19.37 -19.57,18.98 -18.94,18.12 -18.32,17.27 -16.19,14.64 -14.05,12.02 -10.96,7.71 -7.87,3.40 -5.22,0.50 -2.57,-2.40 -2.24,-2.67 -1.92,-2.94 -1.54,-3.13 -1.16,-3.32 -0.74,-3.41 -0.33,-3.50 0.09,-3.49 0.51,-3.48 0.92,-3.36 1.33,-3.25 1.70,-3.05 2.07,-2.84 2.38,-2.55 2.69,-2.26 2.92,-1.90 3.15,-1.55 3.29,-1.15 3.43,-0.75 3.47,-0.33 3.51,0.09 3.45,0.51 3.39,0.93 3.23,1.32 3.07,1.71 2.82,2.05 2.57,2.40 2.57,2.40 L 2.57,2.40 Z"/></g></svg>